<svg width="371" height="311" viewBox="0 0 371 311" fill="none" xmlns="http://www.w3.org/2000/svg">
	<g clip-path="url(#clip0_6_852)">
		<path d="M330.9 157.2C328.4 162.1 325.3 166.7 321.5 170.7C311.5 181.4 297.4 188.4 282.7 189.3C262.6 190.7 242.1 180.8 230.7 164.2C219.3 147.6 217.3 125 225.7 106.6C242.6 69.8 291.3 62.6 319 88.9C322.2 91.8 325.1 95.3 327.7 99.2C338.7 116.3 340 139.1 330.9 157.2Z" fill="white" />
		<path d="M314.2 169.6C305.5 177.5 294.2 182.7 282.4 183.5C264.5 184.7 246.3 175.9 236.1 161.1C225.9 146.3 224.2 126.1 231.7 109.8C236.1 100.2 242.9 92.9 250.9 87.9C246.2 92.2 242.3 97.6 239.4 103.9C231.9 120.2 233.6 140.4 243.8 155.2C254 170 272.2 178.8 290.1 177.6C298.6 177 306.9 174.2 314.2 169.6Z" fill="#E6E6E6" />
		<path d="M278.9 191.8C259.3 191.8 239.9 181.8 228.7 165.6C216.8 148.3 214.8 124.9 223.5 105.7C231.6 88 247.4 75.8 266.8 72C286.4 68.2 306.5 73.9 320.5 87.2C323.8 90.2 326.8 93.8 329.5 98C341 115.7 342.3 139.3 332.9 158.2C330.3 163.4 327 168.1 323.1 172.2C312.5 183.5 297.8 190.5 282.8 191.6C281.5 191.8 280.2 191.8 278.9 191.8ZM278.8 75.6C275.1 75.6 271.4 75.9 267.7 76.7C249.8 80.1 235.2 91.4 227.7 107.7C219.6 125.3 221.5 147 232.5 162.9C243.5 178.9 263.1 188.3 282.4 187C296.3 186.1 309.9 179.5 319.7 169.1C323.3 165.3 326.4 160.9 328.8 156.2C337.5 138.8 336.3 117 325.7 100.6C323.2 96.8 320.4 93.5 317.4 90.7C307.1 80.9 293.2 75.6 278.8 75.6Z" fill="#333333" />
		<path d="M145.1 159C143.3 161.1 141.3 163.1 139.1 164.7C130.8 171.1 120.1 174.2 109.5 175.2C92.4999 176.8 74.2999 173.3 60.9999 162.6C50.9999 154.6 44.2999 142 43.7999 129.4C43.5999 125.1 44.1999 120.9 45.4999 116.8C47.6999 110.2 56.4999 109.8 63.4999 109.5C93.3999 108.1 123.9 105.6 153.7 104.2C154.2 108.7 154.6 113.2 154.9 117.8C155.8 132.7 154.4 147.7 145.1 159Z" fill="white" />
		<path d="M155 117.8C117.6 117.6 79.4 117.6 43.9 129.4C43.7 125.1 44.3 120.9 45.6 116.8C47.8 110.2 56.6 109.8 63.6 109.5C93.5 108.1 124 105.6 153.8 104.2C154.3 108.6 154.8 113.2 155 117.8Z" fill="#E6E6E6" />
		<path d="M101.8 177.9C85.5002 177.9 70.5002 173.1 59.6002 164.4C44.7002 152.4 38.0002 132.5 43.4002 116C46.1002 107.9 56.1002 107.4 63.4002 107H63.5002C78.5002 106.3 93.8002 105.3 108.7 104.4C123.5 103.4 138.8 102.5 153.8 101.8C154.4 101.8 155.1 102 155.5 102.4C155.9 102.8 156.2 103.4 156.2 104C158.4 124.2 159.5 145.2 147 160.4C145 162.8 142.8 164.8 140.6 166.5C130.8 174 118.5 176.6 109.9 177.5C107.1 177.8 104.4 177.9 101.8 177.9ZM151.7 106.6C137.5 107.3 123 108.2 108.9 109.1C94.0002 110.1 78.7002 111 63.7002 111.7H63.6002C57.3002 112 49.5002 112.4 47.9002 117.4C43.1002 132.1 49.2002 149.9 62.6002 160.7C74.3002 170.1 91.4002 174.5 109.4 172.8C117.4 172 128.8 169.6 137.8 162.7C139.8 161.2 141.7 159.4 143.5 157.3C154.3 144.2 153.7 125.2 151.7 106.6Z" fill="#333333" />
		<path d="M122.9 310.5C122.3 310.5 121.7 310.3 121.3 309.8C120.4 308.9 120.3 307.4 121.2 306.5C140.1 286.9 159.7 266.6 184.3 253.3C200 244.9 214.3 241.9 226.7 244.5C240.8 247.4 255.2 260.6 253.8 276.7C253.7 278 252.5 278.9 251.3 278.8C250 278.7 249.1 277.6 249.2 276.3C250.4 262.8 238 251.6 225.8 249.1C214.5 246.7 201.2 249.5 186.5 257.5C162.5 270.4 143.2 290.4 124.5 309.8C124.1 310.2 123.5 310.5 122.9 310.5Z" fill="#333333" />
		<path d="M330.9 157.2C328.4 162.1 325.3 166.7 321.5 170.7C312.1 167 304.5 158.3 300.7 148.7C295.2 134.8 296.3 118.5 303.7 105.6C307.5 99 312.9 92.8 319 89C322.2 91.9 325.1 95.4 327.7 99.3C338.7 116.3 340 139.1 330.9 157.2Z" fill="#333333" />
		<path d="M145.1 159C143.3 161.1 141.3 163.1 139.1 164.7C131.5 160 125.7 149.4 124.6 141.9C122.4 127.7 130.7 112.5 143.8 106.6C147 105.2 150.4 104.3 153.9 104.2C155.9 123.1 157.3 144.3 145.1 159Z" fill="#333333" />
		<path d="M125.6 163.2C116.4 168.6 105 171.1 93.9 169.9C77 168.1 61.1 157.9 53.6 143.8C46.1 129.8 47.3 112.5 56.6 99.9C62.1 92.5 69.3999 87.4 77.6999 84.5C72.6999 87.4 68.2999 91.3 64.7 96.2C55.4 108.8 54.2 126.1 61.7 140.1C69.2 154.1 85.1 164.4 102 166.2C110 167 118.2 165.9 125.6 163.2Z" fill="#E6E6E6" />
		<path d="M0 135.8C23.3 120.2 51.2 111.7 79.2 111.6C93.2 111.6 107.2 113.6 121.2 113C135.2 112.4 149.7 108.8 159.9 99.1C170.1 89.5 174.4 72.8 166.8 61C148.7 73.9 124.5 77.3 102.2 78C79.9 78.7 56.7 78.6 36.7 88.4C18.1 97.4 5.2 115.8 0 135.8Z" fill="#333333" />
		<path d="M370.7 74.8C347.4 59.2 319.5 50.7 291.5 50.6C277.5 50.6 263.5 52.6 249.5 52C235.5 51.4 221 47.8 210.8 38.1C200.6 28.5 196.3 11.8 203.9 0C222 12.9 246.2 16.3 268.5 17C290.8 17.7 314 17.6 334 27.4C352.6 36.4 365.5 54.8 370.7 74.8Z" fill="#333333" />
		<path d="M133.1 142.4H125.5C121.9 142.4 118.9 139.4 118.9 135.8C118.9 132.2 121.9 129.2 125.5 129.2H133.1C136.7 129.2 139.7 132.2 139.7 135.8C139.7 139.5 136.8 142.4 133.1 142.4Z" fill="white" />
		<path d="M305.3 141H297.7C294.1 141 291.1 138 291.1 134.4C291.1 130.8 294.1 127.8 297.7 127.8H305.3C308.9 127.8 311.9 130.8 311.9 134.4C311.9 138.1 309 141 305.3 141Z" fill="white" />
	</g>
	<defs>
		<clipPath id="clip0_6_852">
			<rect width="370.7" height="310.5" fill="white" />
		</clipPath>
	</defs>
</svg>
